<svg width="37" height="37" viewBox="0 0 37 37" fill="none" xmlns="http://www.w3.org/2000/svg">
<path d="M27.2397 28.1632C26.2393 28.1756 25.2456 27.9993 24.3105 27.6436C23.4728 27.3178 22.7158 26.8139 22.0921 26.1667C21.4776 25.5053 21.003 24.7266 20.6969 23.8773C20.3606 22.9378 20.1941 21.946 20.2051 20.9482C20.1979 19.9675 20.3692 18.9938 20.7107 18.0745C21.0291 17.2173 21.5191 16.4341 22.1506 15.7728C22.784 15.1197 23.5407 14.5989 24.3768 14.2404C25.2825 13.8572 26.258 13.6667 27.2412 13.6807C28.298 13.6582 29.3446 13.8909 30.2922 14.3591C31.138 14.7929 31.8716 15.4173 32.4351 16.1829C33.0035 16.9649 33.4136 17.8505 33.6422 18.7898C33.8917 19.7884 33.9807 20.8204 33.9059 21.847H23.9914C23.952 22.822 24.2861 23.7754 24.9256 24.5125C25.5975 25.1018 26.4759 25.4002 27.3676 25.3419C28.068 25.3583 28.7563 25.1574 29.3379 24.7669C29.7997 24.485 30.154 24.0568 30.3446 23.5505H33.6669C33.2904 24.9823 32.4241 26.2369 31.2187 27.0963C30.0256 27.8343 28.6419 28.2052 27.2397 28.1632ZM27.1333 16.5328C26.6153 16.5134 26.1002 16.6191 25.6317 16.8412C25.2654 17.0259 24.9403 17.2829 24.6759 17.5966C24.4433 17.8816 24.2713 18.211 24.1702 18.5647C24.0812 18.8595 24.0238 19.1628 23.9991 19.4697H30.138C30.0938 18.6703 29.7889 17.9073 29.2701 17.2975C28.6958 16.7554 27.9211 16.4781 27.1333 16.5328ZM12.2871 27.8055H3.08331V8.83529H12.025C12.8533 8.82804 13.6801 8.90813 14.4916 9.07425C15.179 9.20844 15.8339 9.47439 16.4203 9.85742C16.9498 10.225 17.3748 10.7238 17.6536 11.305C17.9614 12.0052 18.1089 12.7652 18.0853 13.5297C18.1187 14.3754 17.8945 15.2114 17.4424 15.927C16.9477 16.61 16.2791 17.1482 15.5061 17.4856C16.5564 17.7481 17.4797 18.3747 18.1115 19.2539C18.6984 20.1586 18.9953 21.2208 18.9625 22.2987C18.9848 23.1607 18.7953 24.0151 18.4106 24.7869C18.0555 25.4714 17.5404 26.0601 16.909 26.5028C16.2544 26.9582 15.5234 27.2924 14.7506 27.4895C13.944 27.7013 13.1134 27.808 12.2794 27.807L12.2871 27.8055ZM7.26123 19.3525V24.5788H11.7166C12.1104 24.583 12.5034 24.5432 12.8883 24.4601C13.2407 24.3921 13.5761 24.2548 13.875 24.0562C14.1628 23.8669 14.3966 23.606 14.5533 23.2992C14.7351 22.9143 14.8208 22.4911 14.8031 22.0659C14.8778 21.2767 14.572 20.4992 13.9798 19.9723C13.3408 19.5324 12.5746 19.3157 11.7999 19.3556L7.26123 19.3525ZM7.26123 12.0682V16.5005H11.4885C12.1424 16.5262 12.7871 16.3396 13.3261 15.9686C13.8343 15.5466 14.1019 14.9012 14.0415 14.2435C14.0545 13.8659 13.974 13.4909 13.8071 13.152C13.6564 12.8779 13.4343 12.6499 13.1643 12.4921C12.88 12.3235 12.566 12.211 12.2393 12.1607C11.8835 12.094 11.522 12.0625 11.1601 12.0666L7.26123 12.0682ZM30.9119 11.9818H23.219V10.1087H30.9119V11.9803V11.9818Z" fill="#2E3A59"/>
</svg>
