<svg width="37" height="37" viewBox="0 0 37 37" fill="none" xmlns="http://www.w3.org/2000/svg">
<path d="M18.5 33.9167C9.98559 33.9167 3.08331 27.0144 3.08331 18.5C3.08331 9.98562 9.98559 3.08334 18.5 3.08334C27.0144 3.08334 33.9166 9.98562 33.9166 18.5C33.9073 27.0105 27.0105 33.9073 18.5 33.9167ZM10.9766 28.5902L10.9689 28.6056C14.4886 31.2424 19.131 31.8464 23.2082 30.1982C22.6238 27.0552 21.7575 23.9712 20.6198 20.9836C18.0065 21.8948 15.6174 23.3521 13.6114 25.2587C12.6227 26.1947 11.7669 27.2617 11.0676 28.4299L11.0568 28.4468V28.4314L11.0291 28.4854L11.0106 28.5162L10.9998 28.5363L10.9736 28.5918L10.9766 28.5902ZM25.8676 20.1111C25.1086 20.1121 24.3505 20.1636 23.5983 20.2652C24.5806 23.0102 25.3537 25.8256 25.9108 28.6873C28.5307 26.7987 30.3115 23.9634 30.8749 20.7832C29.2439 20.3332 27.5596 20.1056 25.8676 20.1064V20.1111ZM5.88452 18.4306V18.517C5.88733 21.4871 6.93829 24.361 8.85223 26.6323C11.3317 22.802 14.9993 19.891 19.2924 18.3458L19.4759 18.2934C19.203 17.6906 18.9471 17.1526 18.6911 16.65C14.5779 17.8033 10.329 18.4022 6.05719 18.4306H5.88452ZM25.3851 17.4964C27.298 17.5034 29.2067 17.6778 31.0892 18.0175C30.9911 15.4096 30.079 12.8979 28.4807 10.8348C26.6157 12.9206 24.2943 14.5477 21.6974 15.5893L21.7421 15.5708L21.6943 15.5909C21.9703 16.1659 22.2123 16.704 22.4143 17.1834C22.4621 17.2975 22.5021 17.3962 22.5391 17.4918L22.6024 17.6459C23.5263 17.5434 24.4554 17.4935 25.3851 17.4964ZM12.9145 7.21039C9.56188 8.86517 7.1166 11.9226 6.2391 15.557C9.83177 15.5015 13.4072 15.0475 16.8997 14.2034H16.9198H16.9429L16.9583 14.1833L17.0416 14.1633H17.0508L17.1125 14.151H17.1264H17.1371L17.1695 14.1417L17.2312 14.1263L17.2666 14.1109L17.3006 14.1016H17.316H17.3314C15.2764 10.4833 13.1489 7.53414 12.913 7.21039H12.9145ZM18.5 5.91843C17.6561 5.91634 16.8139 5.99637 15.9855 6.15743C17.6006 8.39529 19.0826 10.7262 20.424 13.1381C22.8261 12.2825 24.9685 10.8249 26.6461 8.90468C24.3686 6.97851 21.4828 5.92065 18.5 5.91843Z" fill="#2E3A59"/>
</svg>
