<svg width="68" height="56" viewBox="0 0 68 56" fill="none" xmlns="http://www.w3.org/2000/svg">
<path d="M6.388 21.248H14.452V26H0.232V0.727999H6.388V21.248ZM32.2658 37.72C31.8098 36.88 31.1498 36.244 30.2858 35.812C29.4458 35.356 28.4498 35.128 27.2978 35.128C25.3058 35.128 23.7098 35.788 22.5098 37.108C21.3098 38.404 20.7098 40.144 20.7098 42.328C20.7098 44.656 21.3338 46.48 22.5818 47.8C23.8538 49.096 25.5938 49.744 27.8018 49.744C29.3138 49.744 30.5858 49.36 31.6178 48.592C32.6738 47.824 33.4418 46.72 33.9218 45.28H26.1098V40.744H39.5018V46.468C39.0458 48.004 38.2658 49.432 37.1618 50.752C36.0818 52.072 34.7018 53.14 33.0218 53.956C31.3418 54.772 29.4458 55.18 27.3338 55.18C24.8378 55.18 22.6058 54.64 20.6378 53.56C18.6938 52.456 17.1698 50.932 16.0658 48.988C14.9858 47.044 14.4458 44.824 14.4458 42.328C14.4458 39.832 14.9858 37.612 16.0658 35.668C17.1698 33.7 18.6938 32.176 20.6378 31.096C22.5818 29.992 24.8018 29.44 27.2978 29.44C30.3218 29.44 32.8658 30.172 34.9298 31.636C37.0178 33.1 38.3978 35.128 39.0698 37.72H32.2658Z" fill="#6E00FF"/>
<path d="M29.3403 26.252C26.9643 26.252 24.7803 25.7 22.7883 24.596C20.8203 23.492 19.2483 21.956 18.0723 19.988C16.9202 17.996 16.3442 15.764 16.3442 13.292C16.3442 10.82 16.9202 8.6 18.0723 6.632C19.2483 4.664 20.8203 3.128 22.7883 2.024C24.7803 0.92 26.9643 0.368 29.3403 0.368C31.7163 0.368 33.8883 0.92 35.8563 2.024C37.8483 3.128 39.4083 4.664 40.5363 6.632C41.6883 8.6 42.2643 10.82 42.2643 13.292C42.2643 15.764 41.6883 17.996 40.5363 19.988C39.3843 21.956 37.8243 23.492 35.8563 24.596C33.8883 25.7 31.7163 26.252 29.3403 26.252ZM29.3403 20.636C31.3563 20.636 32.9643 19.964 34.1642 18.62C35.3883 17.276 36.0003 15.5 36.0003 13.292C36.0003 11.06 35.3883 9.284 34.1642 7.964C32.9643 6.62 31.3563 5.948 29.3403 5.948C27.3003 5.948 25.6683 6.608 24.4443 7.928C23.2443 9.248 22.6443 11.036 22.6443 13.292C22.6443 15.524 23.2443 17.312 24.4443 18.656C25.6683 19.976 27.3003 20.636 29.3403 20.636ZM54.8637 55.252C52.4877 55.252 50.3037 54.7 48.3117 53.596C46.3437 52.492 44.7717 50.956 43.5957 48.988C42.4437 46.996 41.8677 44.764 41.8677 42.292C41.8677 39.82 42.4437 37.6 43.5957 35.632C44.7717 33.664 46.3437 32.128 48.3117 31.024C50.3037 29.92 52.4877 29.368 54.8637 29.368C57.2397 29.368 59.4117 29.92 61.3797 31.024C63.3717 32.128 64.9317 33.664 66.0597 35.632C67.2117 37.6 67.7877 39.82 67.7877 42.292C67.7877 44.764 67.2117 46.996 66.0597 48.988C64.9077 50.956 63.3477 52.492 61.3797 53.596C59.4117 54.7 57.2397 55.252 54.8637 55.252ZM54.8637 49.636C56.8797 49.636 58.4877 48.964 59.6877 47.62C60.9117 46.276 61.5237 44.5 61.5237 42.292C61.5237 40.06 60.9117 38.284 59.6877 36.964C58.4877 35.62 56.8797 34.948 54.8637 34.948C52.8237 34.948 51.1917 35.608 49.9677 36.928C48.7677 38.248 48.1677 40.036 48.1677 42.292C48.1677 44.524 48.7677 46.312 49.9677 47.656C51.1917 48.976 52.8237 49.636 54.8637 49.636Z" fill="#E5E5E5"/>
</svg>
