<svg width="224" height="30" viewBox="0 0 224 30" fill="none" xmlns="http://www.w3.org/2000/svg">
<path d="M8.06899 24.356L0.760985 16.4L8.06899 8.444H15.809L8.46499 16.4L15.809 24.356H8.06899ZM19.5451 18.92C19.5451 16.856 19.9291 15.044 20.6971 13.484C21.4891 11.924 22.5571 10.724 23.9011 9.884C25.2451 9.044 26.7451 8.624 28.4011 8.624C29.7211 8.624 30.9211 8.9 32.0011 9.452C33.1051 10.004 33.9691 10.748 34.5931 11.684V2.36H40.7491V29H34.5931V26.12C34.0171 27.08 33.1891 27.848 32.1091 28.424C31.0531 29 29.8171 29.288 28.4011 29.288C26.7451 29.288 25.2451 28.868 23.9011 28.028C22.5571 27.164 21.4891 25.952 20.6971 24.392C19.9291 22.808 19.5451 20.984 19.5451 18.92ZM34.5931 18.956C34.5931 17.42 34.1611 16.208 33.2971 15.32C32.4571 14.432 31.4251 13.988 30.2011 13.988C28.9771 13.988 27.9331 14.432 27.0691 15.32C26.2291 16.184 25.8091 17.384 25.8091 18.92C25.8091 20.456 26.2291 21.68 27.0691 22.592C27.9331 23.48 28.9771 23.924 30.2011 23.924C31.4251 23.924 32.4571 23.48 33.2971 22.592C34.1611 21.704 34.5931 20.492 34.5931 18.956ZM48.2987 6.824C47.2187 6.824 46.3307 6.512 45.6347 5.888C44.9627 5.24 44.6267 4.448 44.6267 3.512C44.6267 2.552 44.9627 1.76 45.6347 1.136C46.3307 0.487998 47.2187 0.163998 48.2987 0.163998C49.3547 0.163998 50.2187 0.487998 50.8907 1.136C51.5867 1.76 51.9347 2.552 51.9347 3.512C51.9347 4.448 51.5867 5.24 50.8907 5.888C50.2187 6.512 49.3547 6.824 48.2987 6.824ZM51.3587 8.912V29H45.2027V8.912H51.3587ZM64.8559 23.24L69.2119 8.912H75.7639L68.6359 29H61.0399L53.9119 8.912H60.4999L64.8559 23.24Z" fill="#6E00FF"/>
<path d="M84.76 18.956C84.76 16.868 85.18 15.044 86.02 13.484C86.884 11.924 88.072 10.724 89.584 9.884C91.12 9.044 92.872 8.624 94.84 8.624C97.36 8.624 99.46 9.284 101.14 10.604C102.844 11.924 103.96 13.784 104.488 16.184H97.936C97.384 14.648 96.316 13.88 94.732 13.88C93.604 13.88 92.704 14.324 92.032 15.212C91.36 16.076 91.024 17.324 91.024 18.956C91.024 20.588 91.36 21.848 92.032 22.736C92.704 23.6 93.604 24.032 94.732 24.032C96.316 24.032 97.384 23.264 97.936 21.728H104.488C103.96 24.08 102.844 25.928 101.14 27.272C99.436 28.616 97.336 29.288 94.84 29.288C92.872 29.288 91.12 28.868 89.584 28.028C88.072 27.188 86.884 25.988 86.02 24.428C85.18 22.868 84.76 21.044 84.76 18.956ZM113.937 2.36V29H107.781V2.36H113.937ZM117.174 18.92C117.174 16.856 117.558 15.044 118.326 13.484C119.118 11.924 120.186 10.724 121.53 9.884C122.874 9.044 124.374 8.624 126.03 8.624C127.446 8.624 128.682 8.912 129.738 9.488C130.818 10.064 131.646 10.82 132.222 11.756V8.912H138.378V29H132.222V26.156C131.622 27.092 130.782 27.848 129.702 28.424C128.646 29 127.41 29.288 125.994 29.288C124.362 29.288 122.874 28.868 121.53 28.028C120.186 27.164 119.118 25.952 118.326 24.392C117.558 22.808 117.174 20.984 117.174 18.92ZM132.222 18.956C132.222 17.42 131.79 16.208 130.926 15.32C130.086 14.432 129.054 13.988 127.83 13.988C126.606 13.988 125.562 14.432 124.698 15.32C123.858 16.184 123.438 17.384 123.438 18.92C123.438 20.456 123.858 21.68 124.698 22.592C125.562 23.48 126.606 23.924 127.83 23.924C129.054 23.924 130.086 23.48 130.926 22.592C131.79 21.704 132.222 20.492 132.222 18.956ZM151.004 29.288C149.252 29.288 147.692 28.988 146.324 28.388C144.956 27.788 143.876 26.972 143.084 25.94C142.292 24.884 141.848 23.708 141.752 22.412H147.836C147.908 23.108 148.232 23.672 148.808 24.104C149.384 24.536 150.092 24.752 150.932 24.752C151.7 24.752 152.288 24.608 152.696 24.32C153.128 24.008 153.344 23.612 153.344 23.132C153.344 22.556 153.044 22.136 152.444 21.872C151.844 21.584 150.872 21.272 149.528 20.936C148.088 20.6 146.888 20.252 145.928 19.892C144.968 19.508 144.14 18.92 143.444 18.128C142.748 17.312 142.4 16.22 142.4 14.852C142.4 13.7 142.712 12.656 143.336 11.72C143.984 10.76 144.92 10.004 146.144 9.452C147.392 8.9 148.868 8.624 150.572 8.624C153.092 8.624 155.072 9.248 156.512 10.496C157.976 11.744 158.816 13.4 159.032 15.464H153.344C153.248 14.768 152.936 14.216 152.408 13.808C151.904 13.4 151.232 13.196 150.392 13.196C149.672 13.196 149.12 13.34 148.736 13.628C148.352 13.892 148.16 14.264 148.16 14.744C148.16 15.32 148.46 15.752 149.06 16.04C149.684 16.328 150.644 16.616 151.94 16.904C153.428 17.288 154.64 17.672 155.576 18.056C156.512 18.416 157.328 19.016 158.024 19.856C158.744 20.672 159.116 21.776 159.14 23.168C159.14 24.344 158.804 25.4 158.132 26.336C157.484 27.248 156.536 27.968 155.288 28.496C154.064 29.024 152.636 29.288 151.004 29.288ZM171.078 29.288C169.326 29.288 167.766 28.988 166.398 28.388C165.03 27.788 163.95 26.972 163.158 25.94C162.366 24.884 161.922 23.708 161.826 22.412H167.91C167.982 23.108 168.306 23.672 168.882 24.104C169.458 24.536 170.166 24.752 171.006 24.752C171.774 24.752 172.362 24.608 172.77 24.32C173.202 24.008 173.418 23.612 173.418 23.132C173.418 22.556 173.118 22.136 172.518 21.872C171.918 21.584 170.946 21.272 169.602 20.936C168.162 20.6 166.962 20.252 166.002 19.892C165.042 19.508 164.214 18.92 163.518 18.128C162.822 17.312 162.474 16.22 162.474 14.852C162.474 13.7 162.786 12.656 163.41 11.72C164.058 10.76 164.994 10.004 166.218 9.452C167.466 8.9 168.942 8.624 170.646 8.624C173.166 8.624 175.146 9.248 176.586 10.496C178.05 11.744 178.89 13.4 179.106 15.464H173.418C173.322 14.768 173.01 14.216 172.482 13.808C171.978 13.4 171.306 13.196 170.466 13.196C169.746 13.196 169.194 13.34 168.81 13.628C168.426 13.892 168.234 14.264 168.234 14.744C168.234 15.32 168.534 15.752 169.134 16.04C169.758 16.328 170.718 16.616 172.014 16.904C173.502 17.288 174.714 17.672 175.65 18.056C176.586 18.416 177.402 19.016 178.098 19.856C178.818 20.672 179.19 21.776 179.214 23.168C179.214 24.344 178.878 25.4 178.206 26.336C177.558 27.248 176.61 27.968 175.362 28.496C174.138 29.024 172.71 29.288 171.078 29.288ZM203.356 9.092V14.528H183.196V9.092H203.356ZM203.356 18.272V23.708H183.196V18.272H203.356ZM209.45 3.728H215.75L211.718 13.376H207.578L209.45 3.728ZM217.622 3.728H223.922L219.89 13.376H215.75L217.622 3.728Z" fill="#E5E5E5"/>
</svg>
