<svg width="37" height="37" viewBox="0 0 37 37" fill="none" xmlns="http://www.w3.org/2000/svg">
<path d="M30.8256 10.3107C32.2076 9.48447 33.2417 8.18353 33.7348 6.65075C32.4362 7.42128 31.0153 7.96406 29.5337 8.25563C27.4796 6.08269 24.225 5.5539 21.5886 6.96472C18.9522 8.37555 17.5866 11.3767 18.2549 14.2913C12.9355 14.0242 7.97964 11.5115 4.6204 7.37842C2.86728 10.4023 3.76316 14.2678 6.66773 16.2122C5.61741 16.1784 4.59038 15.894 3.67227 15.3828C3.67227 15.4105 3.67227 15.4383 3.67227 15.466C3.67288 18.6159 5.89285 21.3291 8.98023 21.9533C8.006 22.2184 6.98409 22.2574 5.99248 22.0674C6.86075 24.7611 9.34337 26.6065 12.173 26.6616C9.82943 28.501 6.93517 29.4985 3.95594 29.4936C3.42787 29.4944 2.90022 29.464 2.37573 29.4027C5.40108 31.3468 8.92222 32.3786 12.5184 32.375C17.5214 32.4094 22.3296 30.437 25.8672 26.899C29.4049 23.3611 31.3769 18.5528 31.3421 13.5497C31.3421 13.263 31.3354 12.9778 31.3221 12.6941C32.6178 11.7577 33.736 10.5976 34.6243 9.2685C33.4172 9.80356 32.1368 10.1548 30.8256 10.3107Z" fill="#2E3A59"/>
</svg>
